<?xml version="1.0" encoding="utf-8"?><svg viewBox="0 0 100 70" xmlns="http://www.w3.org/2000/svg" xmlns:xlink="http://www.w3.org/1999/xlink"><style>:root>svg{display:none}:root>svg:target{display:block}</style><svg viewBox="0 0 28 14" id="arrow" xmlns="http://www.w3.org/2000/svg"><path d="M1.094 8.094h23.163l-3.837 3.818a1.094 1.094 0 101.543 1.55l5.715-5.687h.001a1.095 1.095 0 000-1.55L21.962.537a1.094 1.094 0 00-1.543 1.55l3.837 3.82H1.094a1.094 1.094 0 100 2.187z"/></svg><svg fill="none" viewBox="0 0 51 51" id="bar-chart" xmlns="http://www.w3.org/2000/svg"><path d="M4.582 33.768H0v14.941h9.064V33.768H4.582z" fill="#99F"/><path d="M4.582 33.768h4.482v14.941H4.582V33.768z" fill="#6680FF"/><path d="M18.03 27.791h-4.483v20.918h8.965V27.791h-4.483z" fill="#99F"/><path d="M18.03 27.791h4.482v20.918h-4.483V27.791z" fill="#6680FF"/><path d="M31.477 21.814h-4.483V48.71h8.965V21.814h-4.482z" fill="#99F"/><path d="M31.477 21.814h4.482V48.71h-4.482V21.814z" fill="#6680FF"/><path d="M44.924 15.838H40.44v32.871h8.965V15.838h-4.482z" fill="#99F"/><path d="M44.924 15.838h4.482v32.871h-4.482V15.838z" fill="#6680FF"/><path d="M48.012 2.291v2.411c-2.904-2.573-7.235-3.094-10.743-1.146-2.798 1.557-4.472 4.343-4.716 7.346-.343-.177-.717-.268-1.077-.4-2.45-.903-5.212-.83-7.654.525-2.799 1.557-4.471 4.342-4.716 7.344-2.68-1.38-5.93-1.43-8.732.127a9.242 9.242 0 00-4.208 11.3l2.808-1.026a6.264 6.264 0 012.852-7.662 6.269 6.269 0 018.014 1.625l2.581-1.434a6.264 6.264 0 012.853-7.662 6.26 6.26 0 016.203.057 6.307 6.307 0 011.81 1.568l2.581-1.434a6.264 6.264 0 012.853-7.662c2.342-1.301 5.254-.968 7.217.705h-2.409v2.988H51v-7.57h-2.987z" fill="#FF6C6C"/><path d="M33.287 15.264l2.581-1.434a6.264 6.264 0 012.853-7.662c2.342-1.3 5.254-.967 7.217.705h-2.409v2.988H51v-7.57h-2.988v2.411c-2.903-2.573-7.235-3.094-10.743-1.146-2.798 1.557-4.472 4.343-4.716 7.346-.343-.177-.717-.268-1.077-.4v3.194a6.305 6.305 0 011.811 1.568z" fill="#E63950"/></svg><svg fill="none" viewBox="0 0 55 55" id="bills" xmlns="http://www.w3.org/2000/svg"><path d="M44.422 27.5l9.797-9.797L37.297.781 10.578 27.5" fill="#78B75B"/><path d="M18.594 27.5a8.906 8.906 0 0117.812 0" fill="#669E4F"/><path d="M33.58 28.76a3.54 3.54 0 00-1.044-2.52c-1.344-1.346-3.692-1.346-5.036 0l-2.52-2.52a1.785 1.785 0 012.52.001l1.259-1.26a3.567 3.567 0 00-5.038 0l-.63-.63-1.26 1.26.63.631a3.534 3.534 0 00-1.042 2.519c-.001.95.37 1.846 1.044 2.52a3.54 3.54 0 002.518 1.042c.951 0 1.846-.37 2.518-1.043l2.52 2.52a1.785 1.785 0 01-2.52-.001l-1.258 1.26a3.552 3.552 0 002.518 1.041c.912 0 1.824-.347 2.52-1.04l.629.629 1.26-1.26-.63-.631a3.541 3.541 0 001.042-2.519zM26.24 27.5c-.672.672-1.846.672-2.518 0a1.765 1.765 0 01-.522-1.26c0-.475.185-.922.521-1.259L26.24 27.5zm2.52 0c.672-.673 1.847-.673 2.518 0 .337.336.522.783.522 1.258 0 .476-.185.923-.52 1.26l-2.52-2.519z" fill="#78B75B"/><path d="M41.948 25.648l-1.26-1.26 6.927-6.928L37.538 7.384l-6.927 6.928-1.26-1.26 7.557-7.558a.891.891 0 011.26 0L49.505 16.83a.89.89 0 010 1.26l-7.557 7.558z" fill="#669E4F"/><path d="M38.19 21.854l1.259-1.26 1.261 1.259-1.26 1.26-1.26-1.259zM40.683 19.36l1.26-1.26 1.26 1.26-1.26 1.26-1.26-1.26zM31.891 15.57l1.262-1.26 1.258 1.261-1.26 1.26-1.26-1.26zM34.387 13.06l1.26-1.259 1.26 1.26-1.26 1.26-1.26-1.26zM.781 27.5H54.22v23.156H.78V27.5z" fill="#96CC7F"/><path d="M27.5 47.984a8.906 8.906 0 100-17.812 8.906 8.906 0 000 17.812zM14.14 50.656l3.563 3.563 3.563-3.563" fill="#78B75B"/><path d="M28.39 38.188h-.001v-3.563h.002c.981 0 1.78.799 1.78 1.781h1.78a3.566 3.566 0 00-3.56-3.562h-.002v-.89h-1.78v.89a3.566 3.566 0 00-3.563 3.562 3.566 3.566 0 003.563 3.562v3.562a1.782 1.782 0 01-1.782-1.78h-1.781a3.566 3.566 0 003.563 3.562v.89h1.78v-.89h.002a3.566 3.566 0 003.56-3.563 3.565 3.565 0 00-3.56-3.562zm-3.563-1.782c0-.982.798-1.781 1.781-1.781v3.563c-.982 0-1.78-.8-1.78-1.782zm3.564 7.124h-.002v-3.562h.002a1.782 1.782 0 010 3.562zM50.654 47.983H39.968v-1.78h9.796v-14.25h-9.796v-1.781h10.686a.89.89 0 01.891.89v16.032a.89.89 0 01-.89.89zM15.03 47.984H4.344a.89.89 0 01-.89-.89V31.062a.89.89 0 01.889-.89H15.03l.001 1.781H5.234v14.25h9.796v1.781z" fill="#669E4F"/><path d="M39.968 42.64h1.78v1.782h-1.78V42.64zM43.53 42.64h1.78v1.782h-1.78V42.64zM39.968 33.734h1.78v1.782h-1.78v-1.782zM43.53 33.734h1.78v1.782h-1.78v-1.782zM9.688 33.734h1.78v1.782h-1.78v-1.782zM13.25 33.734h1.78v1.782h-1.78v-1.782zM9.688 42.64h1.78v1.782h-1.78V42.64zM13.25 42.64h1.78v1.782h-1.78V42.64z" fill="#78B75B"/></svg><svg fill="none" viewBox="0 0 70 70" id="call" xmlns="http://www.w3.org/2000/svg"><rect width="70" height="70" rx="35" fill="#00B2FF"/><g clip-path="url(#dclip0)" fill="#fff"><path d="M49.136 42.49L44.8 38.15a3.09 3.09 0 00-2.195-.898 3.24 3.24 0 00-2.305.96l-1.688 1.688c-1.311-.729-3.054-1.731-4.864-3.541-1.808-1.809-2.81-3.547-3.543-4.865l1.69-1.688c1.255-1.26 1.28-3.278.056-4.502l-4.335-4.335a3.076 3.076 0 00-2.195-.903c-.848 0-1.65.326-2.266.92-.372.3-2.24 1.95-2.937 5.351-.975 4.761 1.265 9.342 7.732 15.812 7.224 7.221 13.392 7.783 15.11 7.783.357 0 .573-.022.63-.029 3.37-.395 4.576-1.891 5.457-2.984 1.141-1.416 1.137-3.279-.01-4.43zm-1.438 3.262c-.828 1.027-1.61 1.997-4.224 2.303-.001 0-.144.016-.414.016-1.538 0-7.075-.522-13.793-7.238-5.964-5.966-8.057-10.057-7.225-14.121.607-2.967 2.22-4.228 2.283-4.276l.055-.041.049-.05c.27-.268.621-.416.992-.416.337 0 .648.126.878.357l4.336 4.336c.5.498.473 1.337-.058 1.869l-1.91 1.909-.032.033c-.498.548-.44 1.29-.165 1.772.791 1.428 1.875 3.384 3.961 5.47 2.08 2.08 4.032 3.163 5.457 3.953.142.08.437.214.805.214.435 0 .835-.184 1.13-.52l1.794-1.792c.267-.268.618-.416.988-.416.338 0 .651.127.88.355l4.334 4.335c.55.553.323 1.397-.121 1.948zM38.175 24.628c1.6.184 3.482 1.153 4.797 2.468 1.328 1.327 2.299 3.23 2.474 4.846a.93.93 0 001.85-.2c-.22-2.044-1.374-4.329-3.007-5.962-1.619-1.619-3.88-2.769-5.901-3.001a.93.93 0 10-.213 1.849zM37.305 28.527c.865.1 2.063.742 2.847 1.526.79.79 1.434 2 1.528 2.874a.93.93 0 001.85-.2c-.161-1.494-1.152-3.08-2.062-3.99-.902-.903-2.473-1.889-3.95-2.06a.93.93 0 10-.213 1.85z"/></g><defs><clipPath id="dclip0"><path fill="#fff" transform="translate(20 20)" d="M0 0h30v30H0z"/></clipPath></defs></svg><svg fill="none" viewBox="0 0 58 58" id="clock" xmlns="http://www.w3.org/2000/svg"><path d="M29 57.15c15.547 0 28.15-12.603 28.15-28.15C57.15 13.453 44.547.85 29 .85 13.453.85.85 13.453.85 29 .85 44.547 13.453 57.15 29 57.15z" fill="#EAB14D"/><path d="M29 .85c-.503 0-1.002.013-1.498.04 14.85.778 26.653 13.066 26.653 28.11 0 15.044-11.802 27.332-26.653 28.11.496.027.995.04 1.498.04 15.547 0 28.15-12.603 28.15-28.15C57.15 13.453 44.547.85 29 .85z" fill="#E49542"/><path d="M29 50.936c12.115 0 21.936-9.821 21.936-21.936S41.115 7.064 29 7.064 7.064 16.885 7.064 29 16.885 50.936 29 50.936z" fill="#F4FBFF"/><path d="M29 7.064a22.2 22.2 0 00-1.804.074C38.467 8.056 47.328 17.493 47.328 29c0 11.507-8.86 20.944-20.132 21.862.595.048 1.197.074 1.804.074 12.115 0 21.936-9.821 21.936-21.936S41.115 7.064 29 7.064z" fill="#DAF1F4"/><path d="M29 31.268a2.268 2.268 0 100-4.536 2.268 2.268 0 000 4.536z" fill="#365E7D"/><path d="M29 13.815c.47 0 .85-.38.85-.85V11.72a.85.85 0 00-1.7 0v1.247c0 .469.38.85.85.85zM41.774 16.199a.85.85 0 00-1.201 0l-.882.881a.85.85 0 101.202 1.202l.881-.882a.85.85 0 000-1.201zM44.942 28.15a.85.85 0 100 1.7h1.247a.85.85 0 100-1.7h-1.247zM40.827 39.691a.85.85 0 00-1.201 1.202l.881.881a.848.848 0 001.202 0 .85.85 0 000-1.201l-.882-.882zM28.058 44.942v1.247a.85.85 0 101.7 0v-1.247a.85.85 0 10-1.7 0zM17.015 39.626l-.882.881a.85.85 0 001.202 1.202l.881-.882a.85.85 0 10-1.201-1.201zM11.719 28.058a.85.85 0 000 1.7h1.247a.85.85 0 100-1.7h-1.247zM18.282 17.015l-.882-.882a.85.85 0 00-1.201 1.202l.881.881a.847.847 0 001.202 0 .85.85 0 000-1.201zM31.277 31.126l6.051 3.112a.85.85 0 00.777-1.511l-6.05-3.111A3.122 3.122 0 0029.85 26v-8.66a.85.85 0 00-1.698 0v8.66a3.129 3.129 0 00-2.15 2.15h-4.217a.85.85 0 000 1.698h4.218A3.122 3.122 0 0029 32.117c.898 0 1.707-.382 2.277-.991zM29 30.418A1.42 1.42 0 0127.582 29 1.42 1.42 0 0129 27.582 1.42 1.42 0 0130.418 29 1.42 1.42 0 0129 30.418z" fill="#000"/><path d="M50.936 28.149a.85.85 0 00.782-.912 22.702 22.702 0 00-7.2-14.922A22.708 22.708 0 0029 6.215C16.436 6.214 6.214 16.434 6.214 29c0 12.564 10.222 22.786 22.786 22.786 11.883 0 21.81-9.154 22.718-21.023a.85.85 0 00-1.694-.13C49.184 41.594 40.019 50.088 29 50.088c-11.627 0-21.086-9.46-21.086-21.087C7.914 17.373 17.373 7.913 29 7.913a21.015 21.015 0 0114.36 5.646 21.006 21.006 0 016.664 13.808.848.848 0 00.912.782z" fill="#000"/><path d="M49.506 8.494C44.03 3.016 36.746 0 29 0a28.901 28.901 0 00-15.64 4.575.85.85 0 00.918 1.43A27.206 27.206 0 0129 1.699c7.292 0 14.148 2.84 19.305 7.996C53.46 14.852 56.3 21.708 56.3 29 56.3 44.088 44.09 56.3 29 56.3c-2.697 0-5.363-.393-7.927-1.17a.85.85 0 10-.492 1.627A29.02 29.02 0 0029 58c16.028 0 29-12.97 29-29 0-7.746-3.017-15.029-8.494-20.506zM17.984 53.985A27.329 27.329 0 011.7 29a27.233 27.233 0 019.918-21.052.85.85 0 00-1.083-1.31A28.927 28.927 0 000 29a29.03 29.03 0 0017.298 26.54.846.846 0 001.12-.434.85.85 0 00-.434-1.12z" fill="#000"/></svg><svg fill="none" viewBox="0 0 56 56" id="help" xmlns="http://www.w3.org/2000/svg"><path d="M25.398 36.888l2.888 1.902a7.268 7.268 0 005.7.997l15.12 15.12 5.8-15.332-9.354-9.353c0-1.734-.21-3.447-.615-5.104l-19.54 11.77z" fill="#FFBF9E"/><path d="M47.448 18.898a2.623 2.623 0 00-3.71 0 2.623 2.623 0 00-3.71-3.71 2.623 2.623 0 10-3.71-3.71 2.623 2.623 0 00-3.71-3.71l-4.543 4.544-13.871 15.935L1.12 41.32l5.185 13.53 16.91-16.909a5.068 5.068 0 013.583-1.484c4.354 0 8.53-1.73 11.61-4.81l9.04-9.04a2.623 2.623 0 000-3.71z" fill="#FFD4BE"/><path d="M10.232 32.21l9.357 9.357 3.626-3.626c.113-.113.23-.22.352-.32l-9.373-9.374-3.962 3.962z" fill="#91DEF5"/><path d="M35.83 41.638l10.564-10.564 3.961 3.962L39.791 45.6l-3.961-3.962z" fill="#F6838D"/><path d="M17.904 24.537l-3.94-3.939a2.623 2.623 0 113.71-3.71l3.94 3.94a2.623 2.623 0 11-3.71 3.71z" fill="#FFBF9E"/><path d="M21.613 20.827l-3.938-3.938a2.623 2.623 0 113.71-3.71l3.938 3.939a2.623 2.623 0 11-3.71 3.71z" fill="#FFBF9E"/><path d="M25.323 17.118l-3.939-3.94a2.623 2.623 0 113.71-3.71l3.94 3.94a2.623 2.623 0 11-3.71 3.71zM14.194 28.247l-2.322-2.322a2.623 2.623 0 113.71-3.71l2.322 2.322a2.623 2.623 0 11-3.71 3.71z" fill="#FFBF9E"/><path d="M47.576 30.7a12.03 12.03 0 00-1.288-5.386l1.934-1.933a3.721 3.721 0 000-5.257 3.705 3.705 0 00-2.622-1.086 3.692 3.692 0 00-1.088-2.623 3.705 3.705 0 00-2.623-1.087 3.705 3.705 0 00-1.087-2.623 3.693 3.693 0 00-2.621-1.089 3.693 3.693 0 00-1.089-2.621 3.693 3.693 0 00-2.628-1.089c-.993 0-1.927.387-2.629 1.089l-3.834 3.834-2.133-2.133a3.693 3.693 0 00-2.628-1.09c-.993 0-1.927.387-2.629 1.09-.7.7-1.087 1.632-1.088 2.623a3.706 3.706 0 00-2.622 1.086c-.7.7-1.086 1.631-1.088 2.622-.99.002-1.921.388-2.622 1.088a3.723 3.723 0 00-.624 4.426 3.694 3.694 0 00-1.468.901 3.721 3.721 0 000 5.257l1.548 1.548-12.3 12.3a1.094 1.094 0 001.547 1.547l8.338-8.338 7.81 7.81-12.51 12.511a1.094 1.094 0 001.547 1.547l16.91-16.91a3.978 3.978 0 011.049-.753l2.646 1.743a8.394 8.394 0 005.942 1.27L48.332 55.68a1.09 1.09 0 001.547 0 1.094 1.094 0 000-1.547L41.346 45.6l1.032-1.031a1.094 1.094 0 00-1.547-1.547l-1.032 1.032-2.415-2.416 9.019-9.018 2.415 2.415-1.03 1.029a1.094 1.094 0 001.548 1.547l1.029-1.03 3.767 3.768a1.09 1.09 0 001.547 0 1.094 1.094 0 000-1.547L47.576 30.7zM33.382 8.541a1.52 1.52 0 011.082-.448c.408 0 .792.159 1.081.448.29.288.448.673.448 1.081 0 .409-.159.793-.448 1.082l-2.403 2.403a1.094 1.094 0 001.546 1.547l2.404-2.403a1.519 1.519 0 011.082-.448 1.53 1.53 0 011.081 2.611l-3.67 3.67a1.094 1.094 0 001.547 1.547l3.67-3.67a1.52 1.52 0 011.081-.448c.409 0 .793.159 1.082.447.289.29.448.673.448 1.082 0 .409-.16.793-.448 1.081l-3.67 3.67a1.094 1.094 0 001.547 1.547l3.67-3.67a1.531 1.531 0 012.163 0 1.531 1.531 0 010 2.163l-9.04 9.04a15.225 15.225 0 01-10.837 4.49 6.125 6.125 0 00-3.104.837l-6.33-6.33c.486-.185.934-.471 1.313-.85.7-.701 1.087-1.633 1.088-2.623a3.705 3.705 0 002.622-1.087 3.705 3.705 0 001.087-2.622 3.692 3.692 0 002.623-1.088 3.704 3.704 0 001.086-2.622 3.692 3.692 0 002.623-1.088 3.692 3.692 0 001.089-2.628c0-.993-.387-1.927-1.089-2.629l-.258-.258 3.834-3.834zm-11.224 1.7a1.52 1.52 0 011.081-.448c.409 0 .793.16 1.082.448l3.939 3.94c.289.288.448.672.448 1.08 0 .41-.16.793-.448 1.082a1.52 1.52 0 01-1.082.448 1.52 1.52 0 01-1.08-.448h-.001l-3.939-3.939a1.52 1.52 0 01-.448-1.081c0-.409.159-.793.448-1.082zm-3.71 3.71c.298-.298.69-.447 1.082-.447.391 0 .783.149 1.081.447l3.939 3.939a1.531 1.531 0 01-1.082 2.611 1.52 1.52 0 01-1.081-.448l-3.939-3.939A1.52 1.52 0 0118 15.034c0-.409.16-.793.448-1.082zm-3.71 3.71a1.52 1.52 0 011.082-.448c.408 0 .793.16 1.081.448l3.94 3.939a1.531 1.531 0 010 2.163 1.531 1.531 0 01-2.164 0l-3.939-3.939a1.531 1.531 0 010-2.163zm-2.092 5.327c.298-.298.69-.447 1.081-.447s.783.149 1.08.446l2.323 2.323c.29.289.448.673.448 1.081 0 .409-.159.793-.448 1.082a1.519 1.519 0 01-1.081.448 1.52 1.52 0 01-1.081-.448l-2.322-2.322a1.532 1.532 0 010-2.163zm-.867 9.22l2.415-2.415 7.81 7.81-2.415 2.416-7.81-7.81zm22.98 6.804c-.27-.269-.66-.38-1.03-.29a6.197 6.197 0 01-4.841-.846l-.593-.39a17.38 17.38 0 0010.886-5.066l5.459-5.458a9.846 9.846 0 01.746 3.58l-9.548 9.549-1.079-1.079z" fill="#000"/><path d="M44.309 39.544a1.1 1.1 0 00-.32.774c0 .287.116.57.32.773.203.203.485.32.773.32a1.1 1.1 0 00.773-.32c.204-.204.32-.486.32-.773a1.1 1.1 0 00-.32-.774 1.102 1.102 0 00-.773-.32c-.288 0-.57.117-.773.32zM7.39 8.936a1.09 1.09 0 001.546 0 1.094 1.094 0 000-1.547L3.788 2.24a1.094 1.094 0 00-1.547 1.546L7.39 8.936zM13.344 5.963c.604 0 1.094-.49 1.094-1.094V1.094a1.094 1.094 0 00-2.188 0v3.775c0 .604.49 1.094 1.094 1.094zM1.094 14.437H4.87a1.094 1.094 0 100-2.187H1.094a1.094 1.094 0 100 2.187zM47.837 9.256c.28 0 .56-.107.773-.32l5.149-5.148a1.094 1.094 0 00-1.547-1.547l-5.148 5.148a1.094 1.094 0 00.773 1.867zM42.656 5.963c.604 0 1.094-.49 1.094-1.094V1.094a1.094 1.094 0 10-2.188 0v3.775c0 .604.49 1.094 1.094 1.094zM50.037 13.344c0 .604.49 1.093 1.094 1.093h3.775a1.094 1.094 0 100-2.187H51.13c-.604 0-1.094.49-1.094 1.094z" fill="#000"/></svg><svg fill="none" viewBox="0 0 100 30" id="logo" xmlns="http://www.w3.org/2000/svg"><path d="M6.398 24.293H18.84V29H.54V.562h5.858v23.731zm37.93-8.867c0 2.8-.495 5.254-1.484 7.363-.99 2.11-2.41 3.737-4.258 4.883-1.836 1.146-3.945 1.719-6.328 1.719-2.357 0-4.46-.567-6.309-1.7-1.849-1.132-3.281-2.747-4.297-4.843-1.015-2.11-1.53-4.532-1.543-7.266v-1.406c0-2.8.502-5.26 1.504-7.383 1.016-2.135 2.442-3.77 4.278-4.902C27.74.745 29.849.17 32.219.17s4.472.574 6.308 1.72c1.85 1.132 3.275 2.767 4.278 4.902 1.015 2.122 1.523 4.577 1.523 7.363v1.27zm-5.937-1.29c0-2.981-.534-5.247-1.602-6.796-1.068-1.55-2.591-2.324-4.57-2.324-1.966 0-3.483.768-4.551 2.304-1.068 1.524-1.608 3.763-1.621 6.72v1.386c0 2.903.534 5.156 1.601 6.758 1.068 1.601 2.605 2.402 4.61 2.402 1.966 0 3.476-.768 4.531-2.305 1.055-1.55 1.589-3.802 1.602-6.758v-1.386zm32.695 11.27c-1.055 1.263-2.546 2.246-4.473 2.95-1.927.69-4.062 1.035-6.406 1.035-2.46 0-4.622-.534-6.484-1.602-1.85-1.08-3.282-2.643-4.297-4.687-1.003-2.045-1.517-4.447-1.543-7.207V13.96c0-2.839.475-5.293 1.426-7.363.963-2.084 2.343-3.672 4.14-4.766C55.26.725 57.375.172 59.797.172c3.372 0 6.009.807 7.91 2.422 1.901 1.601 3.027 3.939 3.379 7.011h-5.703c-.26-1.627-.84-2.819-1.738-3.574-.886-.755-2.11-1.133-3.672-1.133-1.992 0-3.51.75-4.551 2.247-1.042 1.497-1.57 3.723-1.582 6.68v1.816c0 2.981.566 5.234 1.7 6.757 1.132 1.524 2.792 2.286 4.98 2.286 2.2 0 3.77-.47 4.707-1.407v-4.902h-5.333v-4.316h11.192v11.347zm28.125-9.98c0 2.8-.495 5.254-1.484 7.363-.99 2.11-2.41 3.737-4.258 4.883-1.836 1.146-3.946 1.719-6.328 1.719-2.357 0-4.46-.567-6.309-1.7-1.849-1.132-3.281-2.747-4.297-4.843-1.016-2.11-1.53-4.532-1.543-7.266v-1.406c0-2.8.501-5.26 1.504-7.383 1.016-2.135 2.442-3.77 4.277-4.902C82.623.745 84.732.17 87.102.17c2.37 0 4.472.574 6.308 1.72 1.85 1.132 3.275 2.767 4.278 4.902 1.015 2.122 1.523 4.577 1.523 7.363v1.27zm-5.938-1.29c0-2.981-.533-5.247-1.601-6.796-1.068-1.55-2.591-2.324-4.57-2.324-1.967 0-3.484.768-4.551 2.304-1.068 1.524-1.608 3.763-1.621 6.72v1.386c0 2.903.533 5.156 1.601 6.758 1.068 1.601 2.604 2.402 4.61 2.402 1.966 0 3.476-.768 4.53-2.305 1.056-1.55 1.59-3.802 1.602-6.758v-1.386z" fill="#fff"/></svg><svg fill="none" viewBox="0 0 98 30" id="logo_alt" xmlns="http://www.w3.org/2000/svg"><path d="M4.07 25.934h13.477V29H.3V.562h3.77v25.372zm38.34-10.235c0 2.787-.469 5.222-1.406 7.305-.938 2.07-2.266 3.652-3.984 4.746-1.72 1.094-3.724 1.64-6.016 1.64-2.24 0-4.225-.546-5.957-1.64-1.732-1.107-3.08-2.676-4.043-4.707-.95-2.044-1.439-4.408-1.465-7.09v-2.05c0-2.735.475-5.15 1.426-7.247.95-2.096 2.291-3.698 4.023-4.804 1.745-1.12 3.737-1.68 5.977-1.68 2.278 0 4.284.553 6.015 1.66 1.745 1.094 3.086 2.689 4.024 4.785.937 2.084 1.406 4.512 1.406 7.285V15.7zm-3.73-1.836c0-3.372-.677-5.957-2.032-7.754-1.354-1.81-3.248-2.714-5.683-2.714-2.37 0-4.238.904-5.606 2.714-1.354 1.797-2.05 4.297-2.09 7.5v2.09c0 3.268.684 5.84 2.051 7.715 1.38 1.862 3.275 2.793 5.684 2.793 2.422 0 4.297-.879 5.625-2.637 1.328-1.77 2.012-4.303 2.05-7.597v-2.11zM69.03 25.27c-.963 1.38-2.31 2.415-4.043 3.105-1.718.677-3.724 1.016-6.015 1.016-2.318 0-4.375-.54-6.172-1.621-1.797-1.094-3.19-2.644-4.18-4.649-.977-2.005-1.478-4.33-1.504-6.973v-2.48c0-4.284.996-7.604 2.989-9.961C52.11 1.35 54.922.172 58.542.172c2.969 0 5.358.762 7.168 2.285 1.81 1.51 2.917 3.659 3.32 6.445h-3.75c-.703-3.763-2.943-5.644-6.719-5.644-2.512 0-4.42.885-5.722 2.656-1.29 1.758-1.94 4.31-1.953 7.656v2.325c0 3.19.729 5.729 2.187 7.617 1.459 1.875 3.431 2.812 5.918 2.812 1.406 0 2.637-.156 3.692-.469 1.054-.312 1.927-.84 2.617-1.582v-6.386h-6.582V14.84H69.03v10.43zm28.145-9.57c0 2.786-.469 5.22-1.407 7.304-.937 2.07-2.265 3.652-3.984 4.746-1.719 1.094-3.724 1.64-6.016 1.64-2.24 0-4.225-.546-5.957-1.64-1.731-1.107-3.079-2.676-4.043-4.707-.95-2.044-1.438-4.408-1.464-7.09v-2.05c0-2.735.475-5.15 1.425-7.247.951-2.096 2.292-3.698 4.024-4.804C81.499.732 83.49.172 85.73.172c2.278 0 4.283.553 6.015 1.66 1.745 1.094 3.086 2.689 4.023 4.785.938 2.084 1.407 4.512 1.407 7.285V15.7zm-3.73-1.837c0-3.372-.678-5.957-2.032-7.754-1.354-1.81-3.249-2.714-5.683-2.714-2.37 0-4.239.904-5.606 2.714-1.354 1.797-2.05 4.297-2.09 7.5v2.09c0 3.268.684 5.84 2.05 7.715 1.381 1.862 3.276 2.793 5.684 2.793 2.422 0 4.297-.879 5.625-2.637 1.329-1.77 2.012-4.303 2.051-7.597v-2.11z" fill="#000"/></svg><svg fill="none" viewBox="0 0 48 48" id="orders" xmlns="http://www.w3.org/2000/svg"><path d="M35.615 39.715h3.362c.27 0 .488-.21.488-.47v-4.864h-3.85v5.334zM38.977.704H8.837c-.269 0-.487.21-.487.468v3.489h23.008c.27 0 .488.21.488.469v3.156h3.282c.269 0 .487.21.487.468v4.718h3.85v-12.3a.479.479 0 00-.488-.468z" fill="#01D0FB"/><path d="M12.016 4.66V1.173c0-.259.218-.468.488-.468H8.838c-.27 0-.488.21-.488.468v3.489h3.666z" fill="#01C0FA"/><path d="M31.748 34.38v3.804c0 .1-.04.195-.114.266l-5.22 5.018a.395.395 0 01-.275.11H4.501v3.25c0 .259.218.469.487.469h30.14c.269 0 .487-.21.487-.469V34.381h-3.867zM35.128 8.285h-3.282v5.186h3.77V8.754a.478.478 0 00-.488-.469z" fill="#DBF1D0"/><path d="M8.192 46.828v-3.156H4.501v3.156c0 .259.218.469.487.469H8.68a.478.478 0 01-.488-.469z" fill="#C1E9AF"/><path d="M23.584 34.38a.503.503 0 01-.513-.492V13.965c0-.273.23-.494.513-.494h8.262V5.13a.478.478 0 00-.488-.47H1.218c-.269 0-.487.21-.487.47v38.073c0 .259.218.469.488.469h24.92c.13 0 .253-.05.345-.137l5.219-5.02a.46.46 0 00.143-.33V34.38h-8.262z" fill="#FFF3DE"/><path d="M4.368 43.203V5.13c0-.26.219-.47.488-.47H1.219c-.27 0-.488.21-.488.47v38.073c0 .259.218.469.488.469h3.637a.478.478 0 01-.488-.469z" fill="#FFE5C2"/><path d="M26.634 38.378a.287.287 0 00-.293.282v4.969a.486.486 0 00.143-.094l5.22-5.02a.47.47 0 00.097-.137h-5.167z" fill="#01D0FB"/><path d="M46.566 16.606H23.81l-.739.099v17.183c0 .272.23.493.513.493h23.172c.283 0 .513-.221.513-.493V16.705l-.703-.099z" fill="#DFF6FD"/><path d="M26.652 33.888V16.705l.74-.099H23.81l-.739.099v17.183c0 .272.23.493.513.493h3.58a.503.503 0 01-.512-.493z" fill="#C8EFFE"/><path d="M46.756 13.471H23.584a.503.503 0 00-.513.493v2.74H47.27v-2.74a.503.503 0 00-.513-.493z" fill="#FB2B3A"/><path d="M27.165 13.471h-3.581a.503.503 0 00-.513.493v2.74h3.581v-2.74c0-.272.23-.493.513-.493z" fill="#E41F2D"/><path d="M28.024 21.818c.72 0 1.303-.561 1.303-1.253 0-.692-.583-1.253-1.303-1.253s-1.303.56-1.303 1.253c0 .692.584 1.253 1.303 1.253zM28.024 26.648c.72 0 1.303-.56 1.303-1.253 0-.692-.583-1.253-1.303-1.253s-1.303.561-1.303 1.253c0 .692.584 1.253 1.303 1.253zM28.024 31.478c.72 0 1.303-.561 1.303-1.253 0-.692-.583-1.253-1.303-1.253s-1.303.56-1.303 1.253c0 .692.584 1.253 1.303 1.253z" fill="#fff"/><path d="M20.506 10.4h-8.435a.718.718 0 00-.731.704c0 .389.327.704.731.704h8.435a.718.718 0 00.731-.704.718.718 0 00-.731-.703zM7.912 36.985h12.924a.718.718 0 00.731-.704.718.718 0 00-.73-.703H7.911a.718.718 0 00-.732.703c0 .389.328.704.732.704z" fill="#000"/><path d="M47.269 26.953c.404 0 .731-.315.731-.703V13.964c0-.66-.558-1.196-1.244-1.196h-6.56V8.156c0-.388-.327-.703-.731-.703-.404 0-.731.315-.731.703v4.612h-2.388V8.754c0-.646-.546-1.172-1.218-1.172h-2.551V5.13c0-.646-.547-1.172-1.219-1.172H9.081v-2.55h29.653v3.468c0 .388.327.703.73.703.405 0 .732-.315.732-.703V1.172C40.196.526 39.649 0 38.977 0H8.837C8.167 0 7.62.526 7.62 1.172v2.785h-6.4C.547 3.957 0 4.483 0 5.13v38.074c0 .647.547 1.172 1.219 1.172h2.55v2.453c0 .646.547 1.172 1.22 1.172h30.139c.672 0 1.218-.526 1.218-1.172v-6.41h2.631c.672 0 1.219-.526 1.219-1.172v-4.162h6.56c.686 0 1.244-.537 1.244-1.196V29.53c0-.388-.327-.703-.731-.703-.404 0-.731.315-.731.703v4.147H23.802v-16.27h22.736v8.842c0 .388.327.703.73.703zM34.884 8.988v3.78h-2.307v-3.78h2.307zm3.85 30.023h-2.388v-3.927h2.388v3.927zm-15.15-26.243c-.686 0-1.244.537-1.244 1.196v1.73H7.912c-.404 0-.732.315-.732.704 0 .388.328.703.732.703H22.34v2.042H7.912c-.404 0-.732.315-.732.703 0 .388.328.703.732.703H22.34v4.684H7.912a.718.718 0 00-.732.703c0 .388.328.703.732.703H22.34v2.042H7.912a.718.718 0 00-.732.703c0 .389.328.703.732.703H22.34v2.043H7.912a.718.718 0 00-.732.703c0 .388.328.703.732.703H22.34v.352c0 .66.558 1.196 1.244 1.196h7.53v2.591h-4.48c-.565 0-1.024.442-1.024.985v4.309H13.47a.718.718 0 00-.73.703c0 .388.327.703.73.703H26.14c.326 0 .631-.122.862-.343l5.22-5.02c.23-.22.356-.515.356-.828v-3.1h2.307v11.51H5.232v-2.219h4.827a.718.718 0 00.73-.703.718.718 0 00-.73-.703H1.462V5.364h29.653v7.404h-7.531zm6.497 26.314l-3.009 2.893v-2.893h3.009zm-6.279-23.08v-1.828h22.736v1.828H23.802z" fill="#000"/><path d="M28.024 18.609c-1.121 0-2.034.877-2.034 1.956 0 1.078.913 1.956 2.034 1.956 1.122 0 2.034-.878 2.034-1.956 0-1.079-.912-1.956-2.034-1.956zm0 2.506a.562.562 0 01-.571-.55c0-.303.256-.55.571-.55.316 0 .572.247.572.55 0 .303-.256.55-.572.55zM43.618 19.862h-12.02a.718.718 0 00-.732.703c0 .388.327.703.731.703h12.021a.718.718 0 00.732-.703.718.718 0 00-.732-.703zM28.024 23.439c-1.121 0-2.034.877-2.034 1.956s.913 1.956 2.034 1.956c1.122 0 2.034-.877 2.034-1.956s-.912-1.956-2.034-1.956zm0 2.506a.562.562 0 01-.571-.55c0-.303.256-.55.571-.55.316 0 .572.247.572.55 0 .303-.256.55-.572.55zM43.618 24.692h-12.02a.718.718 0 00-.732.703c0 .389.327.704.731.704h12.021a.718.718 0 00.732-.704.718.718 0 00-.732-.703zM28.024 28.269c-1.121 0-2.034.877-2.034 1.956 0 1.078.913 1.956 2.034 1.956 1.122 0 2.034-.877 2.034-1.956s-.912-1.956-2.034-1.956zm0 2.506a.562.562 0 01-.571-.55c0-.303.256-.55.571-.55.316 0 .572.247.572.55 0 .303-.256.55-.572.55zM43.618 29.522h-12.02a.718.718 0 00-.732.703c0 .389.327.703.731.703h12.021a.718.718 0 00.732-.703.718.718 0 00-.732-.703z" fill="#000"/></svg><svg fill="none" viewBox="0 0 70 70" id="placeholder" xmlns="http://www.w3.org/2000/svg"><rect width="70" height="70" rx="35" fill="#00B2FF"/><path d="M34.5 17c-7.13 0-12.93 5.8-12.93 12.93 0 2.346 1.053 4.87 1.098 4.977.34.807 1.01 2.06 1.494 2.795l8.865 13.432c.363.55.9.866 1.473.866.573 0 1.11-.316 1.473-.865l8.866-13.433a20.768 20.768 0 001.494-2.795c.044-.106 1.096-2.63 1.096-4.978C47.43 22.8 41.63 17 34.5 17zm10.43 17.317c-.303.723-.927 1.889-1.361 2.547l-8.866 13.433c-.175.266-.23.266-.405 0l-8.866-13.432a19.112 19.112 0 01-1.362-2.55c-.013-.03-.978-2.354-.978-4.386 0-6.29 5.117-11.408 11.408-11.408 6.29 0 11.408 5.118 11.408 11.408 0 2.035-.967 4.365-.977 4.388z" fill="#fff"/><path d="M34.5 23.085a6.853 6.853 0 00-6.845 6.845 6.853 6.853 0 006.845 6.845 6.853 6.853 0 006.845-6.845 6.853 6.853 0 00-6.845-6.845zm0 12.169a5.33 5.33 0 01-5.324-5.324 5.33 5.33 0 015.324-5.324 5.33 5.33 0 015.324 5.324 5.33 5.33 0 01-5.324 5.324z" fill="#fff"/></svg><svg fill="none" viewBox="0 0 62 62" id="team" xmlns="http://www.w3.org/2000/svg"><path d="M16.44 30.514c-.267-3.743-3.043-6.794-6.795-6.794-3.753 0-6.53 3.051-6.795 6.794-.159 2.232 0 5.825-.971 7.766 0 0 .97 1.941 4.55 2.915l6.45-.003c3.56-.97 4.531-2.912 4.531-2.912-.97-1.941-.812-5.534-.97-7.766z" fill="#694B4B"/><path d="M8.674 30.514c-3.741-1.87-2.971-5.535-.306-6.669-3.092.603-5.284 3.365-5.518 6.67-.159 2.231 0 5.824-.971 7.765 0 0 .97 1.941 4.55 2.915l3.066-.002-.821-10.679z" fill="#5A4146"/><path d="M16.771 43.529l-3.141-1.57a1.941 1.941 0 01-1.074-1.738V37.31H6.733v2.913c0 .735-.415 1.407-1.073 1.736l-3.141 1.57a2.912 2.912 0 00-1.61 2.605v6.707h17.473v-6.707a2.912 2.912 0 00-1.61-2.604z" fill="#E6AF78"/><path d="M18.38 46.133a2.912 2.912 0 00-1.609-2.604l-3.141-1.57c-.181-.091-.339-.212-.479-.348l-1.114 1.24c-1.316 1.465-3.469 1.464-4.785 0l-1.114-1.24c-.14.136-.298.257-.479.347l-3.141 1.57a2.912 2.912 0 00-1.61 2.605v6.708h17.473v-6.708z" fill="#D5DCED"/><path d="M9.645 39.25a5.823 5.823 0 01-5.14-3.08c-.666-1.246-.231-2.81.924-3.624.222-.156.451-.334.676-.535a5.604 5.604 0 001.33-1.751.956.956 0 011.09-.53c3.427.874 5.757 2.659 6.597 3.382a.927.927 0 01.33.768 5.825 5.825 0 01-5.807 5.37z" fill="#F0C087"/><path d="M15.121 33.11c-.84-.723-3.17-2.505-6.593-3.379a.96.96 0 00-1.094.532c-.174.362-.461.824-.887 1.295v.003c-.133.15-.274.3-.441.45a6.772 6.772 0 01-.65.516c-1.37.948-1.575 2.686-.735 4.006a5.836 5.836 0 004.04 2.636c-1.162-.79-2.029-1.862-2.029-3.8v-.75c.22-.164.443-.326.666-.525a7.728 7.728 0 001.388-1.638c2.615.816 4.388 2.175 5.06 2.753.183.161.441.389.976.89.342-.54.581-1.593.63-2.22a.928.928 0 00-.33-.768z" fill="#E6AF78"/><path d="M1.5 44.383a2.906 2.906 0 00-.592 1.75v6.707h3.883v-4.89c0-.59-.268-1.148-.729-1.517L1.5 44.383zM17.79 44.383c.373.497.59 1.106.59 1.75v6.707h-3.882v-4.89c0-.59.268-1.148.729-1.517l2.562-2.05z" fill="#C7CFE2"/><path d="M44.59 27.602v.682c0 .834.134 1.663.398 2.455l1.543 4.629h2.912V24.69h-1.941a2.912 2.912 0 00-2.912 2.912z" fill="#5A4146"/><path d="M57.956 29.357l-1.718 6.011-7.765-6.795a1.941 1.941 0 01-1.942-1.941 2.912 2.912 0 012.912-2.912h8.737v4.037a5.82 5.82 0 01-.224 1.6z" fill="#694B4B"/><path d="M54.297 38.28h-5.824v5.825h5.824V38.28z" fill="#E6AF78"/><path d="M58.98 41.973l-4.683-1.338-2.912 3.47-2.912-3.47-4.683 1.338a2.912 2.912 0 00-2.112 2.8v8.067h19.414v-8.067c0-1.3-.862-2.443-2.112-2.8z" fill="#D5DCED"/><path d="M51.385 39.25a5.824 5.824 0 01-5.825-5.824c0-1.242.494-2.435 1.373-3.314l.956-.956a1.918 1.918 0 011.41-.57c3.102.098 5.85.762 7.35 2.229.368.359.56.86.56 1.375v1.236a5.824 5.824 0 01-5.824 5.825z" fill="#F0C087"/><path d="M48.473 33.426c0-1.12.94-2.01 2.058-1.938 1.96.125 4.867.452 6.65 1.31-.057-.409-.233-1.692-.531-1.983-1.502-1.467-4.248-2.131-7.352-2.23a1.919 1.919 0 00-1.409.571l-.956.956a4.687 4.687 0 00-1.373 3.314 5.823 5.823 0 004.21 5.593 5.776 5.776 0 01-1.298-3.651v-1.942z" fill="#E6AF78"/><path d="M57.209 47.665c0-.772.307-1.513.853-2.059l2.499-2.499a2.9 2.9 0 01.53 1.666v8.067H57.21v-5.175z" fill="#C7CFE2"/><path d="M44.946 42.204l-8.122-2.953L31 41.192l-5.824-1.941-8.122 2.953a3.883 3.883 0 00-2.556 3.65v6.986h33.004v-6.987a3.883 3.883 0 00-2.556-3.649z" fill="#FF507D"/><path d="M46.457 43.208a3.878 3.878 0 011.045 2.645v6.988h-5.824v-3.245c0-1.03.409-2.018 1.137-2.746l3.642-3.642z" fill="#D23C69"/><path d="M41.678 19.232V11.1c0-1.072-.87-1.941-1.942-1.941H28.088a7.766 7.766 0 00-7.766 7.766v2.307c0 1.044.168 2.08.498 3.07l.323.97c.1.296.15.607.15.92v.498h19.414v-.498c0-.313.05-.624.15-.92l.322-.97c.33-.99.499-2.026.499-3.07z" fill="#5A4146"/><path d="M25.176 13.102a3.944 3.944 0 003.943 3.944h.546l.264 7.644h10.778v-.498c0-.313.05-.624.15-.92l.323-.97c.33-.99.498-2.026.498-3.07V11.1c0-1.072-.87-1.941-1.941-1.941H29.118a3.943 3.943 0 00-3.943 3.943z" fill="#694B4B"/><path d="M36.823 32.455H25.175v8.736h11.648v-8.736z" fill="#E6AF78"/><path d="M25.176 36.849A12.553 12.553 0 0031 38.28c2.103 0 4.08-.522 5.824-1.431v-4.393H25.176v4.393z" fill="#D29B6E"/><path d="M31 41.192l-3.096 3.096a.97.97 0 01-1.46-.1l-3.21-4.23.84-1.769a.97.97 0 011.386-.41L31 41.192zM31 41.192l3.096 3.096a.97.97 0 001.46-.1l3.21-4.23-.84-1.769a.97.97 0 00-1.386-.41L31 41.192z" fill="#D23C69"/><path d="M31 35.368c-5.361 0-9.707-4.346-9.707-9.707v-.97l1.615-1.078a2.912 2.912 0 001.297-2.423v-3.295s7.766-2.912 13.59 1.942v1.353c0 .973.487 1.883 1.297 2.423l1.615 1.077v.971c0 5.36-4.346 9.707-9.707 9.707z" fill="#F0C087"/><path d="M15.543 43.208a3.879 3.879 0 00-1.045 2.645v6.988h5.824v-3.245c0-1.03-.409-2.018-1.137-2.746l-3.642-3.642z" fill="#D23C69"/><path d="M28.825 20.229c2.11-.265 5.805-.417 8.97.96v-1.352c-5.824-4.854-13.59-1.942-13.59-1.942v3.295c0 .974-.486 1.883-1.297 2.423l-1.615 1.077v.97c0 4.964 3.727 9.05 8.534 9.63a9.666 9.666 0 01-2.71-6.717v-6.416c0-.984.732-1.806 1.708-1.928z" fill="#E6AF78"/><path d="M53.888 30.355a.908.908 0 10.812-1.625c-2.11-1.054-6.065-1.066-6.232-1.066a.908.908 0 100 1.816c1.02 0 3.984.157 5.42.875z" fill="#000"/><path d="M59.228 41.661l-3.75-1.072a.38.38 0 01-.276-.364v-1.252a6.82 6.82 0 00.869-.712 6.681 6.681 0 002.045-4.834V31.7l.362-.726a5.794 5.794 0 00.609-2.577v-4.68a.908.908 0 00-.908-.909h-8.74a5.77 5.77 0 00-5.764 5.764v.054c0 .74.175 1.481.506 2.143l.465.93v1.484c0 2.35 1.159 4.46 2.914 5.73v1.312c0 .202 0 .286-.75.5l-1.83.523-5.295-1.925a.907.907 0 00-.247-.695l-1.692-1.778v-2.984c.179-.147.355-.298.526-.458a10.66 10.66 0 003.358-7.75v-2.382c.645-1.403.971-2.887.971-4.415v-9.71a.908.908 0 00-.908-.909H28.098c-4.784 0-8.676 3.893-8.676 8.677v1.942c0 1.529.326 3.013.97 4.415v2.05c0 3.395 1.51 6.454 3.885 8.47v3.054l-1.692 1.778a.907.907 0 00-.247.695l-5.588 2.032a4.76 4.76 0 00-1.123.588l-.878-.439c2.612-1.136 3.44-2.736 3.48-2.815a.908.908 0 000-.812c-.655-1.31-.735-3.71-.798-5.639a49.34 49.34 0 00-.08-1.788c-.31-4.357-3.621-7.642-7.703-7.642-4.082 0-7.394 3.285-7.704 7.642-.038.54-.058 1.146-.08 1.789-.063 1.928-.142 4.328-.797 5.638a.908.908 0 000 .812c.04.08.865 1.675 3.483 2.813l-2.438 1.219A3.801 3.801 0 000 46.139v6.71a.908.908 0 001.816 0v-6.71c0-.764.425-1.451 1.109-1.793l3.035-1.518 1.055 1.004a3.81 3.81 0 002.633 1.052c.947 0 1.894-.351 2.632-1.052l1.056-1.004.99.495a4.782 4.782 0 00-.731 2.536v6.99a.908.908 0 001.816 0v-6.99c0-1.247.788-2.37 1.96-2.797l5.89-2.142 2.453 3.679a1.872 1.872 0 001.566.837c.496 0 .972-.196 1.327-.55l1.496-1.497v9.46a.908.908 0 101.817 0v-9.46l1.496 1.496a1.871 1.871 0 001.514.541 1.872 1.872 0 001.378-.827l2.453-3.679 5.891 2.142a2.985 2.985 0 011.96 2.797v6.99a.908.908 0 101.816 0v-6.99a4.801 4.801 0 00-1.343-3.323l.224-.064c.226-.065.535-.153.845-.305l2.319 2.319v8.363a.908.908 0 001.816 0v-8.363l2.303-2.303c.122.062.251.115.386.154l3.751 1.071a2.014 2.014 0 011.455 1.928v7.513a.908.908 0 101.816 0v-7.513a3.838 3.838 0 00-2.772-3.675zm-45.759-1.6v-1.084a6.718 6.718 0 002.398-2.96c.109.781.27 1.522.517 2.17-.362.44-1.218 1.262-2.915 1.873zm-9.713-9.482c.116-1.632.768-3.136 1.836-4.235a5.613 5.613 0 014.056-1.72c1.538 0 2.978.611 4.056 1.72 1.068 1.099 1.72 2.603 1.836 4.235.036.505.055 1.095.076 1.72l.005.162c-.988-1.523-2.514-2.645-4.486-3.278-1.821-.586-3.388-.55-3.454-.548a.908.908 0 00-.629.278l-1.638 1.7a.908.908 0 001.307 1.26l1.364-1.414c1.174.057 4.952.497 6.42 3.732a4.906 4.906 0 01-4.857 4.155 4.924 4.924 0 01-4.918-4.919.908.908 0 00-1.057-.894l.008-.234c.02-.625.04-1.215.075-1.72zm-.844 7.607c.248-.648.409-1.391.517-2.175.501 1.201 1.34 2.226 2.397 2.958v1.088c-1.698-.611-2.55-1.426-2.914-1.871zm5.355 4.329l-.845-.803c.143-.267.221-.57.221-.887v-.968a6.756 6.756 0 004.01 0v.968c0 .318.078.62.22.888l-.844.802a2.004 2.004 0 01-2.762 0zm13.942-17.189v-2.253a.907.907 0 00-.09-.395 8.712 8.712 0 01-.881-3.817V16.92a6.868 6.868 0 016.86-6.86h12.687v8.802a8.712 8.712 0 01-.88 3.817.907.907 0 00-.091.395v2.586a8.72 8.72 0 01-2.784 6.424c-.224.21-.457.406-.697.59l-.016.011a8.733 8.733 0 01-5.893 1.758c-4.607-.298-8.215-4.302-8.215-9.116zm8.097 10.929c.24.015.478.023.715.023a10.52 10.52 0 004.909-1.203v1.659l-4.918 3.362-4.919-3.362v-1.695a10.227 10.227 0 004.213 1.216zM27.323 43.6c-.007.007-.021.022-.051.019a.057.057 0 01-.046-.028L24.4 39.354l.91-.955 4.284 2.929-2.272 2.272zm7.474-.009a.058.058 0 01-.046.028c-.03.004-.044-.012-.05-.018l-2.273-2.273 4.285-2.929.909.955-2.825 4.237zm11.666-10.408v-1.698a.907.907 0 00-.096-.406l-.561-1.122a2.991 2.991 0 01-.314-1.33v-.055a3.952 3.952 0 013.947-3.947h7.831v3.772c0 .61-.144 1.22-.416 1.765l-.459.917a.908.908 0 00-.096.406v1.942a4.88 4.88 0 01-1.493 3.53 4.88 4.88 0 01-3.577 1.386c-2.628-.079-4.766-2.393-4.766-5.16zm4.712 6.976a6.746 6.746 0 002.212-.3v.366c0 .181.022.359.065.53l-2.071 2.07-2.061-2.061a2.49 2.49 0 00.056-.54v-.383c.572.188 1.175.3 1.799.318z" fill="#000"/><path d="M57.207 46.114a.908.908 0 00-.908.909v5.826a.908.908 0 101.817 0v-5.826a.908.908 0 00-.909-.909zM4.792 47.315a.908.908 0 00-.908.908v4.626a.908.908 0 001.817 0v-4.626a.908.908 0 00-.909-.908zM25.122 18.711c0-.03.02-.057.048-.061 1.17-.177 3.493-.449 5.9-.288 2.832.188 4.883.9 6.097 2.113a.908.908 0 001.284-1.285c-3.435-3.435-10.622-2.778-13.552-2.336-.923.139-1.593.92-1.593 1.857v2.093a.908.908 0 101.816 0V18.71zM20.33 48.056a.908.908 0 00-.908.909v3.884a.908.908 0 101.816 0v-3.884a.908.908 0 00-.908-.909zM41.693 48.056a.908.908 0 00-.908.909v3.884a.908.908 0 001.816 0v-3.884a.908.908 0 00-.908-.909z" fill="#000"/></svg></svg>