<svg width="98" height="30" viewBox="0 0 98 30" fill="none" xmlns="http://www.w3.org/2000/svg">
<path d="M4.07031 25.9336H17.5469V29H0.300781V0.5625H4.07031V25.9336ZM42.4102 15.6992C42.4102 18.4857 41.9414 20.9206 41.0039 23.0039C40.0664 25.0742 38.7383 26.6562 37.0195 27.75C35.3008 28.8438 33.2956 29.3906 31.0039 29.3906C28.7643 29.3906 26.7786 28.8438 25.0469 27.75C23.3151 26.6432 21.9674 25.0742 21.0039 23.043C20.0534 20.9987 19.5651 18.6354 19.5391 15.9531V13.9023C19.5391 11.168 20.0143 8.7526 20.9648 6.65625C21.9154 4.5599 23.2565 2.95833 24.9883 1.85156C26.7331 0.731771 28.7253 0.171875 30.9648 0.171875C33.2435 0.171875 35.2487 0.72526 36.9805 1.83203C38.7253 2.92578 40.0664 4.52083 41.0039 6.61719C41.9414 8.70052 42.4102 11.1289 42.4102 13.9023V15.6992ZM38.6797 13.8633C38.6797 10.4909 38.0026 7.90625 36.6484 6.10938C35.2943 4.29948 33.3997 3.39453 30.9648 3.39453C28.5951 3.39453 26.7266 4.29948 25.3594 6.10938C24.0052 7.90625 23.3086 10.4062 23.2695 13.6094V15.6992C23.2695 18.9674 23.9531 21.5391 25.3203 23.4141C26.7005 25.276 28.5951 26.207 31.0039 26.207C33.4258 26.207 35.3008 25.3281 36.6289 23.5703C37.957 21.7995 38.6406 19.2669 38.6797 15.9727V13.8633ZM69.0312 25.2695C68.0677 26.6497 66.7201 27.6849 64.9883 28.375C63.2695 29.0521 61.2643 29.3906 58.9727 29.3906C56.6549 29.3906 54.5977 28.8503 52.8008 27.7695C51.0039 26.6758 49.6107 25.1263 48.6211 23.1211C47.6445 21.1159 47.1432 18.7917 47.1172 16.1484V13.668C47.1172 9.38411 48.1133 6.0638 50.1055 3.70703C52.1107 1.35026 54.9232 0.171875 58.543 0.171875C61.5117 0.171875 63.901 0.933594 65.7109 2.45703C67.5208 3.96745 68.6276 6.11589 69.0312 8.90234H65.2812C64.5781 5.13932 62.3385 3.25781 58.5625 3.25781C56.0495 3.25781 54.1419 4.14323 52.8398 5.91406C51.5508 7.67188 50.8997 10.224 50.8867 13.5703V15.8945C50.8867 19.0846 51.6159 21.6237 53.0742 23.5117C54.5326 25.3867 56.5052 26.3242 58.9922 26.3242C60.3984 26.3242 61.6289 26.168 62.6836 25.8555C63.7383 25.543 64.6107 25.0156 65.3008 24.2734V17.8867H58.7188V14.8398H69.0312V25.2695ZM97.1758 15.6992C97.1758 18.4857 96.707 20.9206 95.7695 23.0039C94.832 25.0742 93.5039 26.6562 91.7852 27.75C90.0664 28.8438 88.0612 29.3906 85.7695 29.3906C83.5299 29.3906 81.5443 28.8438 79.8125 27.75C78.0807 26.6432 76.7331 25.0742 75.7695 23.043C74.819 20.9987 74.3307 18.6354 74.3047 15.9531V13.9023C74.3047 11.168 74.7799 8.7526 75.7305 6.65625C76.681 4.5599 78.0221 2.95833 79.7539 1.85156C81.4987 0.731771 83.4909 0.171875 85.7305 0.171875C88.0091 0.171875 90.0143 0.72526 91.7461 1.83203C93.4909 2.92578 94.832 4.52083 95.7695 6.61719C96.707 8.70052 97.1758 11.1289 97.1758 13.9023V15.6992ZM93.4453 13.8633C93.4453 10.4909 92.7682 7.90625 91.4141 6.10938C90.0599 4.29948 88.1654 3.39453 85.7305 3.39453C83.3607 3.39453 81.4922 4.29948 80.125 6.10938C78.7708 7.90625 78.0742 10.4062 78.0352 13.6094V15.6992C78.0352 18.9674 78.7188 21.5391 80.0859 23.4141C81.4661 25.276 83.3607 26.207 85.7695 26.207C88.1914 26.207 90.0664 25.3281 91.3945 23.5703C92.7227 21.7995 93.4062 19.2669 93.4453 15.9727V13.8633Z" fill="black"/>
</svg>
